<mxfile host="Electron" agent="Mozilla/5.0 (Windows NT 10.0; Win64; x64) AppleWebKit/537.36 (KHTML, like Gecko) draw.io/27.0.5 Chrome/134.0.6998.205 Electron/35.3.0 Safari/537.36" version="27.0.5">
  <diagram name="Page-1" id="b-SJ-YLIHoAnC7uxr_FH">
    <mxGraphModel dx="786" dy="564" grid="1" gridSize="10" guides="1" tooltips="1" connect="1" arrows="1" fold="1" page="1" pageScale="1" pageWidth="850" pageHeight="1100" math="0" shadow="0">
      <root>
        <mxCell id="0" />
        <mxCell id="1" parent="0" />
        <mxCell id="NpU7R8TdsVDjC84xVm30-1" value="crm_cust_info" style="swimlane;fontStyle=0;childLayout=stackLayout;horizontal=1;startSize=30;horizontalStack=0;resizeParent=1;resizeParentMax=0;resizeLast=0;collapsible=1;marginBottom=0;whiteSpace=wrap;html=1;rounded=1;fontSize=18;fillColor=#dae8fc;strokeColor=#6c8ebf;" parent="1" vertex="1">
          <mxGeometry x="245" y="320" width="160" height="104" as="geometry" />
        </mxCell>
        <mxCell id="NpU7R8TdsVDjC84xVm30-2" value="cst_id" style="text;align=left;verticalAlign=middle;spacingLeft=4;spacingRight=4;overflow=hidden;points=[[0,0.5],[1,0.5]];portConstraint=eastwest;rotatable=0;whiteSpace=wrap;html=1;fontSize=18;" parent="NpU7R8TdsVDjC84xVm30-1" vertex="1">
          <mxGeometry y="30" width="160" height="37" as="geometry" />
        </mxCell>
        <mxCell id="NpU7R8TdsVDjC84xVm30-21" value="cst_key" style="text;align=left;verticalAlign=middle;spacingLeft=4;spacingRight=4;overflow=hidden;points=[[0,0.5],[1,0.5]];portConstraint=eastwest;rotatable=0;whiteSpace=wrap;html=1;fontSize=18;" parent="NpU7R8TdsVDjC84xVm30-1" vertex="1">
          <mxGeometry y="67" width="160" height="37" as="geometry" />
        </mxCell>
        <mxCell id="NpU7R8TdsVDjC84xVm30-5" value="Customer Information" style="text;html=1;align=center;verticalAlign=middle;whiteSpace=wrap;rounded=0;fontSize=16;" parent="1" vertex="1">
          <mxGeometry x="310" y="320" width="180" height="30" as="geometry" />
        </mxCell>
        <mxCell id="NpU7R8TdsVDjC84xVm30-6" value="crm_prd_info" style="swimlane;fontStyle=0;childLayout=stackLayout;horizontal=1;startSize=30;horizontalStack=0;resizeParent=1;resizeParentMax=0;resizeLast=0;collapsible=1;marginBottom=0;whiteSpace=wrap;html=1;rounded=1;fontSize=18;fillColor=#dae8fc;strokeColor=#6c8ebf;" parent="1" vertex="1">
          <mxGeometry x="245" y="226" width="160" height="66" as="geometry" />
        </mxCell>
        <mxCell id="NpU7R8TdsVDjC84xVm30-7" value="prd_key" style="text;align=left;verticalAlign=middle;spacingLeft=4;spacingRight=4;overflow=hidden;points=[[0,0.5],[1,0.5]];portConstraint=eastwest;rotatable=0;whiteSpace=wrap;html=1;fontSize=18;" parent="NpU7R8TdsVDjC84xVm30-6" vertex="1">
          <mxGeometry y="30" width="160" height="36" as="geometry" />
        </mxCell>
        <mxCell id="NpU7R8TdsVDjC84xVm30-8" value="Current &amp;amp; Historical Product&amp;nbsp; Information" style="text;html=1;align=center;verticalAlign=middle;whiteSpace=wrap;rounded=0;fontSize=16;" parent="1" vertex="1">
          <mxGeometry x="235" y="186" width="180" height="30" as="geometry" />
        </mxCell>
        <mxCell id="NpU7R8TdsVDjC84xVm30-9" value="crm_sales_details" style="swimlane;fontStyle=0;childLayout=stackLayout;horizontal=1;startSize=30;horizontalStack=0;resizeParent=1;resizeParentMax=0;resizeLast=0;collapsible=1;marginBottom=0;whiteSpace=wrap;html=1;rounded=1;fontSize=18;fillColor=#dae8fc;strokeColor=#6c8ebf;" parent="1" vertex="1">
          <mxGeometry x="40" y="240" width="160" height="102" as="geometry" />
        </mxCell>
        <mxCell id="NpU7R8TdsVDjC84xVm30-10" value="prd_key" style="text;align=left;verticalAlign=middle;spacingLeft=4;spacingRight=4;overflow=hidden;points=[[0,0.5],[1,0.5]];portConstraint=eastwest;rotatable=0;whiteSpace=wrap;html=1;fontSize=18;" parent="NpU7R8TdsVDjC84xVm30-9" vertex="1">
          <mxGeometry y="30" width="160" height="36" as="geometry" />
        </mxCell>
        <mxCell id="NpU7R8TdsVDjC84xVm30-12" value="cst_id" style="text;align=left;verticalAlign=middle;spacingLeft=4;spacingRight=4;overflow=hidden;points=[[0,0.5],[1,0.5]];portConstraint=eastwest;rotatable=0;whiteSpace=wrap;html=1;fontSize=18;" parent="NpU7R8TdsVDjC84xVm30-9" vertex="1">
          <mxGeometry y="66" width="160" height="36" as="geometry" />
        </mxCell>
        <mxCell id="NpU7R8TdsVDjC84xVm30-11" value="Transactional details about sales &amp;amp; orders&lt;div&gt;&lt;br&gt;&lt;/div&gt;" style="text;html=1;align=center;verticalAlign=middle;whiteSpace=wrap;rounded=0;fontSize=16;" parent="1" vertex="1">
          <mxGeometry x="30" y="200" width="180" height="30" as="geometry" />
        </mxCell>
        <mxCell id="NpU7R8TdsVDjC84xVm30-13" style="edgeStyle=orthogonalEdgeStyle;rounded=0;orthogonalLoop=1;jettySize=auto;html=1;entryX=0;entryY=0.5;entryDx=0;entryDy=0;" parent="1" source="NpU7R8TdsVDjC84xVm30-12" target="NpU7R8TdsVDjC84xVm30-2" edge="1">
          <mxGeometry relative="1" as="geometry" />
        </mxCell>
        <mxCell id="NpU7R8TdsVDjC84xVm30-15" style="edgeStyle=orthogonalEdgeStyle;rounded=0;orthogonalLoop=1;jettySize=auto;html=1;" parent="1" source="NpU7R8TdsVDjC84xVm30-10" target="NpU7R8TdsVDjC84xVm30-7" edge="1">
          <mxGeometry relative="1" as="geometry" />
        </mxCell>
        <mxCell id="NpU7R8TdsVDjC84xVm30-18" value="erp_cust_az12" style="swimlane;fontStyle=0;childLayout=stackLayout;horizontal=1;startSize=30;horizontalStack=0;resizeParent=1;resizeParentMax=0;resizeLast=0;collapsible=1;marginBottom=0;whiteSpace=wrap;html=1;rounded=1;fontSize=18;fillColor=#ffe6cc;strokeColor=#d79b00;" parent="1" vertex="1">
          <mxGeometry x="590" y="302" width="160" height="66" as="geometry" />
        </mxCell>
        <mxCell id="NpU7R8TdsVDjC84xVm30-19" value="cid" style="text;align=left;verticalAlign=middle;spacingLeft=4;spacingRight=4;overflow=hidden;points=[[0,0.5],[1,0.5]];portConstraint=eastwest;rotatable=0;whiteSpace=wrap;html=1;fontSize=18;" parent="NpU7R8TdsVDjC84xVm30-18" vertex="1">
          <mxGeometry y="30" width="160" height="36" as="geometry" />
        </mxCell>
        <mxCell id="NpU7R8TdsVDjC84xVm30-20" value="Extra Customer Information(bday,gender)" style="text;html=1;align=center;verticalAlign=middle;whiteSpace=wrap;rounded=0;fontSize=16;" parent="1" vertex="1">
          <mxGeometry x="580" y="270" width="180" height="30" as="geometry" />
        </mxCell>
        <mxCell id="NpU7R8TdsVDjC84xVm30-22" style="edgeStyle=orthogonalEdgeStyle;rounded=0;orthogonalLoop=1;jettySize=auto;html=1;entryX=0;entryY=0.5;entryDx=0;entryDy=0;" parent="1" source="NpU7R8TdsVDjC84xVm30-21" target="NpU7R8TdsVDjC84xVm30-19" edge="1">
          <mxGeometry relative="1" as="geometry" />
        </mxCell>
        <mxCell id="NpU7R8TdsVDjC84xVm30-23" value="erp_loc_a101" style="swimlane;fontStyle=0;childLayout=stackLayout;horizontal=1;startSize=30;horizontalStack=0;resizeParent=1;resizeParentMax=0;resizeLast=0;collapsible=1;marginBottom=0;whiteSpace=wrap;html=1;rounded=1;fontSize=18;fillColor=#ffe6cc;strokeColor=#d79b00;" parent="1" vertex="1">
          <mxGeometry x="600" y="398" width="160" height="66" as="geometry" />
        </mxCell>
        <mxCell id="NpU7R8TdsVDjC84xVm30-24" value="cid" style="text;align=left;verticalAlign=middle;spacingLeft=4;spacingRight=4;overflow=hidden;points=[[0,0.5],[1,0.5]];portConstraint=eastwest;rotatable=0;whiteSpace=wrap;html=1;fontSize=18;" parent="NpU7R8TdsVDjC84xVm30-23" vertex="1">
          <mxGeometry y="30" width="160" height="36" as="geometry" />
        </mxCell>
        <mxCell id="NpU7R8TdsVDjC84xVm30-25" value="Customer Country" style="text;html=1;align=center;verticalAlign=middle;whiteSpace=wrap;rounded=0;fontSize=16;" parent="1" vertex="1">
          <mxGeometry x="590" y="380" width="180" height="18" as="geometry" />
        </mxCell>
        <mxCell id="NpU7R8TdsVDjC84xVm30-26" style="edgeStyle=orthogonalEdgeStyle;rounded=0;orthogonalLoop=1;jettySize=auto;html=1;" parent="1" source="NpU7R8TdsVDjC84xVm30-21" target="NpU7R8TdsVDjC84xVm30-24" edge="1">
          <mxGeometry relative="1" as="geometry" />
        </mxCell>
        <mxCell id="NpU7R8TdsVDjC84xVm30-27" value="erp_px_cat_g1v2" style="swimlane;fontStyle=0;childLayout=stackLayout;horizontal=1;startSize=30;horizontalStack=0;resizeParent=1;resizeParentMax=0;resizeLast=0;collapsible=1;marginBottom=0;whiteSpace=wrap;html=1;rounded=1;fontSize=18;fillColor=#ffe6cc;strokeColor=#d79b00;" parent="1" vertex="1">
          <mxGeometry x="590" y="190" width="160" height="66" as="geometry" />
        </mxCell>
        <mxCell id="NpU7R8TdsVDjC84xVm30-28" value="id" style="text;align=left;verticalAlign=middle;spacingLeft=4;spacingRight=4;overflow=hidden;points=[[0,0.5],[1,0.5]];portConstraint=eastwest;rotatable=0;whiteSpace=wrap;html=1;fontSize=18;" parent="NpU7R8TdsVDjC84xVm30-27" vertex="1">
          <mxGeometry y="30" width="160" height="36" as="geometry" />
        </mxCell>
        <mxCell id="NpU7R8TdsVDjC84xVm30-29" value="Information about product category , subcategory and maintainance&lt;div&gt;&lt;br&gt;&lt;/div&gt;" style="text;html=1;align=center;verticalAlign=middle;whiteSpace=wrap;rounded=0;fontSize=16;" parent="1" vertex="1">
          <mxGeometry x="530" y="146" width="260" height="60" as="geometry" />
        </mxCell>
        <mxCell id="NpU7R8TdsVDjC84xVm30-30" style="edgeStyle=orthogonalEdgeStyle;rounded=0;orthogonalLoop=1;jettySize=auto;html=1;entryX=0;entryY=0.5;entryDx=0;entryDy=0;" parent="1" source="NpU7R8TdsVDjC84xVm30-7" target="NpU7R8TdsVDjC84xVm30-28" edge="1">
          <mxGeometry relative="1" as="geometry" />
        </mxCell>
        <mxCell id="NpU7R8TdsVDjC84xVm30-32" value="" style="rounded=1;whiteSpace=wrap;html=1;fillColor=none;dashed=1;dashPattern=8 8;" parent="1" vertex="1">
          <mxGeometry x="20" y="120" width="420" height="410" as="geometry" />
        </mxCell>
        <mxCell id="NpU7R8TdsVDjC84xVm30-33" value="&lt;b&gt;CRM&lt;/b&gt;" style="rounded=1;whiteSpace=wrap;html=1;fillColor=#dae8fc;strokeColor=#6c8ebf;" parent="1" vertex="1">
          <mxGeometry x="140" y="80" width="170" height="60" as="geometry" />
        </mxCell>
        <mxCell id="NpU7R8TdsVDjC84xVm30-36" value="" style="rounded=1;whiteSpace=wrap;html=1;fillColor=none;dashed=1;dashPattern=8 8;" parent="1" vertex="1">
          <mxGeometry x="460" y="120" width="340" height="410" as="geometry" />
        </mxCell>
        <mxCell id="NpU7R8TdsVDjC84xVm30-37" value="&lt;b&gt;ERP&lt;/b&gt;" style="rounded=1;whiteSpace=wrap;html=1;fillColor=#ffe6cc;strokeColor=#d79b00;" parent="1" vertex="1">
          <mxGeometry x="580" y="80" width="170" height="60" as="geometry" />
        </mxCell>
        <mxCell id="d89aHkHNCsyE4AuSzeU4-1" value="&lt;font style=&quot;font-size: 14px;&quot;&gt;Product&lt;/font&gt;" style="text;html=1;strokeColor=#005700;fillColor=#008a00;align=center;verticalAlign=middle;whiteSpace=wrap;overflow=hidden;fontColor=#ffffff;" vertex="1" parent="1">
          <mxGeometry x="250" y="292" width="150" height="20" as="geometry" />
        </mxCell>
        <mxCell id="d89aHkHNCsyE4AuSzeU4-2" value="&lt;font style=&quot;font-size: 14px;&quot;&gt;Product&lt;/font&gt;" style="text;html=1;strokeColor=#005700;fillColor=#008a00;align=center;verticalAlign=middle;whiteSpace=wrap;overflow=hidden;fontColor=#ffffff;" vertex="1" parent="1">
          <mxGeometry x="595" y="249" width="150" height="20" as="geometry" />
        </mxCell>
        <mxCell id="d89aHkHNCsyE4AuSzeU4-3" value="&lt;font style=&quot;font-size: 14px;&quot;&gt;Customers&lt;/font&gt;" style="text;html=1;strokeColor=#3700CC;fillColor=#6a00ff;align=center;verticalAlign=middle;whiteSpace=wrap;overflow=hidden;fontColor=#ffffff;" vertex="1" parent="1">
          <mxGeometry x="250" y="424" width="150" height="20" as="geometry" />
        </mxCell>
        <mxCell id="d89aHkHNCsyE4AuSzeU4-4" value="&lt;font style=&quot;font-size: 14px;&quot;&gt;Customers&lt;/font&gt;" style="text;html=1;strokeColor=#3700CC;fillColor=#6a00ff;align=center;verticalAlign=middle;whiteSpace=wrap;overflow=hidden;fontColor=#ffffff;" vertex="1" parent="1">
          <mxGeometry x="595" y="360" width="150" height="20" as="geometry" />
        </mxCell>
        <mxCell id="d89aHkHNCsyE4AuSzeU4-5" value="&lt;font style=&quot;font-size: 14px;&quot;&gt;Customers&lt;/font&gt;" style="text;html=1;strokeColor=#3700CC;fillColor=#6a00ff;align=center;verticalAlign=middle;whiteSpace=wrap;overflow=hidden;fontColor=#ffffff;" vertex="1" parent="1">
          <mxGeometry x="605" y="464" width="150" height="20" as="geometry" />
        </mxCell>
        <mxCell id="d89aHkHNCsyE4AuSzeU4-6" value="&lt;font style=&quot;font-size: 14px;&quot;&gt;Sales&lt;/font&gt;" style="text;html=1;strokeColor=#b85450;fillColor=#f8cecc;align=center;verticalAlign=middle;whiteSpace=wrap;overflow=hidden;" vertex="1" parent="1">
          <mxGeometry x="45" y="340" width="150" height="20" as="geometry" />
        </mxCell>
      </root>
    </mxGraphModel>
  </diagram>
</mxfile>
